<svg xmlns="http://www.w3.org/2000/svg" width="16" height="16" viewBox="0 0 16 16"><path d="M239 11q-4 0-9 5-5 3-5 5l-1 1 1 1v1l1 1 3 2 3 1 5 3 5-2 1-1 2-1h1v-1l1-2-1-1v-1l8 3 8 5 2 2 5 5v1h-1l-4-2-3-2h-1v1l4 5q8 5 6 9v4h1l7 7h-1v1c-3-1-13-8-20-15l-6-5h-1v1l2 4 1 1 2 4 4 9v3q-2 1-13-1l-15-2v1l19 9q4 2 6 5 1 4 4 4l2 1v3c1 3-5 5-9 3h-2v1l-1 2q-4 2 6 11l11 9 2 2 1 5-3 12v1l-2 2-4 7-18 29-4 6v1l-2 2-3 7h-1v1l-1 3a129 129 0 0 0-13 73l3 11h1l2 6 1 3q6 10 16 19l1 1a76 76 0 0 0 40 17h1l12-1h1q3-2 14-2l12-1h1l2-1 9-6q21-12 26-22l8-13 4-7q6-12 8-25 4-17 1-22l-3-11-13-49-1-5-7-13q-9-20-28-40l-8-10-7-9-1-1-1-2v-1l5-1h8c9 1 20 4 22 7h1q1 5 3 6h2c5-4 12 18 12 36 0 6 2 14 5 15v1l1-1c2-1 2-2-1-18l-2-5v-1l-1-3q-3-17-8-27h-1v-2q-7-11-23-18l-27-8 5 2q11 4 10 8v1q-1 2-7 1h-9l-3-3q-3-3-2-7t-5-6l-9-7-2-2h-1l-1-1-6-5-25-19-4-2-1-1h-1l-1-1-3-2-3-2zm34 31 3 1 1 1 1 1 4 5v1h-1l-5-4zm85 65v2zm-63 47 1 2v1h-1l-2-3h1zm1 44 3 3 1 2 1 2 1 6-3 5q-2 4-5 4-3-2-4 4-3 7-6 5h-1l1-7a85 85 0 0 1 12-24m-137 7v2l2 2v1h2l1 1h1l9-2h1v-1h7l2 1h1v1l-4 3-1 1-2 2-1 3c0 3-7 15-11 19l-6 4 1-2q6-7-1-15-2-3-5-3-3-2-13 15v1l-1 1q-5 8-16 11v1h-1l-4 1-13 3q-17 2-29 7l-4 1-1 1-2 1-1 1h-1l-2 1-3 3h-1v2h1l6-1 5-1 5-1 4-1h21l7 1 2 1h1l-4 1-2 1h-1v2l1 3 5 7h1q1-3-1-5l-1-2v-1h1l1 1h1l1 1 2 2 1 1 1 1q3 9-12 23-7 6-7 9v1h9v2l-1 2h1v1h1v-1l5-3v-1l3-2 7-7 1 2 1 2q3 7 12 4 5-2 7-7l1-3q2-12-9-22l-3-4h-1v-1l8 5q9 9 14 20l2 9-1 1 1 5 7 32v3l3 14q4 17 15 32a95 95 0 0 0 77 44q33 3 74-10 14-3 23-8l4-2h5l3 1 9 4q17 9 17 14c-1 4 5 11 11 12 6 2 15 19 18 32v13l-2 1v-5l-1-4v-2l-3-2q-6-5-9 2l-1 2h-1v-2c0-4-4-9-6-6v1h-2l-1-6-1-2q-3-23-19-36v-1q-7-6-13-8l-6-3v1h-1l-3 30q-1 3-5 6l-1 1q-7 4-8 10v3l-1 1v1l6-2 6-1v1l-6 4-3 1v1l2 1q7 1 11-3l1-2h1v3l-1 1v1h-1v1q-8 7-21 14-7 3-9 6l-2 2h-1l-2-2-1-1h-2v4l3 6 3 2 1 1 4 2-4 1-4 1 3 2 3 1-4 5q-6 8-4 14c2 11 15 17 31 12l3-1q15-7 28-22l3-4h1v-1l3-5 2-5h1l1 1c2 3-1 15-6 24l-5 11-9 21-7 18-5 12-3 8c-9 24-13 36-16 58l-1 6q-1 16 2 31l1 3 7 21 2 6 1 1 4 8 2 3 2 3 2 3q4 3 6 0l2-2 10 4 18 5q10 1 24 7 13 3 15 2l1-1v-1h-1v-1h-1v-1h1v-1c3-2 17-2 25-1l6 2 10 4 4 1 2 1q0-1 0 0h2l3 1 15 4h1l4 1 6 1 3 1h12c11 0 26-1 28-3l8-2q9-2 11-4v-1l-3-3-4-2h-1l-1-1h-2l-9-4h-1l-1-1-1-1v-2l2-3 31-29 2-3q2-7 10-7a132 132 0 0 0 60-28l8-6-6 21q-4 8-7 10l-2 2h-1l-5 4-2 2-1 1h-19l-22 1v1l4 1c10 2 25 1 37-2h1l3-1 5-2h1l6-4 6-5 6-6 4-6v-1h-2q-6 2-2-7l5-15 9-21 7-15h-1l-8 8q-9 8-15 9v-1h-1l1-3q2-2 1-5l1-5 1-2-12 8q-16 12-28 15l-50 19v1h-1q-4 5-12 6a101 101 0 0 1-36-3l-14-6h-1l-8-4-19-12-14-10-4-3-2-4v-5c0-8 0-8 11-5l33 6 6 4 2 3q7 9 10 9h1q1-2 7-1 9 0 10 2v1h1-1l-9 1-7 1 2 2q14 10 33 5 20-4 29-18v-1h1v-1l1-1 2-3q3-4 4-9v-2q0-8-5-19-4-6-2-8l1-3h-1l-2-1q-5-2-6-8 1-4 4-6h1l4-3 1-1h1l1-2v-1h-1q-8-4-14 3h-1q-3 3-3 5v6h1l1 2 2 3v5l-1 5h2q6 0 7 11-1 19-15 7l-1-1-1-1-1-1-3-3h-1q-4-3-12-3l-4-1-7-1-28-5-6-2-2-1-24-11-13-10-3-6v-1h1l4 3q5 3 9 2v-1l-1-6h1l4 1 3 2h1v-1l-2-1-7-5-15-13-1-1-2-2-5-15-3-14v-1l-1-1-1-10-1-2-2-22v-1l-3-10-6-21h1l9 18v1l4 8a205 205 0 0 0 20 36q1-1-1-12l-9-39v-2l-1-6q0-8-5-19-5-13-16-24l-5-5-6-5-1-2-2-1-12-9-2-1-8-3v1l1 2 2 2-5-1-25-3v-1l4-4 2-4v-1q-2-2-12 1-7 2-10 1l1-3 6-6 4-1q8-1 27 10l14 6q1-2-4-8-3-1-10-15l-4-9q-5-8 0-12l3-3 3-2q9-7 11-12 4-5 4-16l1-3 1-1 1-5q0-3 4-6 6-4 3-8-2-2 2-8l1-3 1-2h-2q-3 0-14 7l-7 3-7 3q-2 3-6 4l-4 3-8 6-22 16v1l-2 1h-2l-2-1-23-8-1-1h-1l-28-1h-25l-7 1h-13l-54 4q-7 2-12-3l-2-3-14-24-4-7q-7-11-20-19l-3-2-1-1-3-2v-1l2-1 5-1q6 0 15 6l1 1 4 3 23 10q3-5-6-14l-2-2q-2-4-8-7l-6-2-2-1-4-2v-2h1v-1c2-2 7-10 7-13v-1h1v-1l4-2q5-1 5-4v-1l1-1h1q5 2 5-7-2-6-6-10l-1-1-2-1-2-1-3-1h-6l-9 1h-4l-2 1h-4v-1h-1l-1-1h-1zm98 87q2-1 9 3l8 6v1l-2 1c-2 1-1 1-7-1-3-1-9-6-10-8l1-2zm16 13h1l8 2v2h-1l-1-1h-3l-3-1-1-1m78 84 1 1-2 3-2 3-5 2-7 2h-3q-11 3-15 1l-4-2h-1v-1h1l10-3 22-6zm45 24 14 2 14 7h-3l-32-7v-1zm15 10 2 1h1v1h-4l-1-1h1zm-191 2 2 1 2 1h1l1 1h-3l-1-1-2-1zm40 2q13-1 17 3v1l-3 1-6 2v1l4 1h2l19-1h5q0 2-6 2l-16 1h-4l-27-2h-1l-1-1h-2v-1h12l12-1h1-1q0-2-8-2l-8-2h-1l1-1zm104 9 2 2 2 3h-1zm6 8h1v1l1 2-2-1zm68 3 10 14 2 3v1c-2-1-10-13-12-17m-71 4 2 2v2l1 3v1l1 6v4l-1-2-1-4h-1v3q1 5-3 5l-3 2-3 2h-1l3-8 3-10zm14 23v7l-2 11-1 2v1q-6 9-19 17l-2 1-15 6 4-7 2-1v-1l1-2q1-3 8-6l3-1 11-9q8-9 8-16h1zm-60 19v1l1 2 2 1h1v-2zm1 5q-2 0-2 3v1l3-1v-4m73 12v2l-2 3-1 1h-1l1-3zm21 13-1 3h-1l1-3zm162 140v1l-5 3-5 2h-1l6-4 2-1zm-161 3 5 7 16 38c-3-1-13-13-13-16l-3-5c-3-2-9-16-9-21q1-3 4-3m67 20 6 4 18 13 23 11 28 4 2 1q2 2 0 5v1l1 2 1 1v1l-4 4-3 4 3 1h3l1 1-3 3-10 4-8 1-2-1h-17q-8-1-14-4l-2-2h5c9 2 27 3 32 1l2-1h1l1-1h1v-1h-5c-9 1-23-5-31-11l-6-7-6-7-1-2-15-21zm-67 23q3-1 8 3l7 5 8 6 8 6 10 7 2 2 4 3q5 4 4 7l-1 1c-7 1-16-2-18-7q-1-4-7-6c-9-3-26-20-26-25zm-29 0 4 6v1h-1q-3 1-7-1-1-4 3-6m-18 10 22 22v1q-6-1-14-11zm199 2h2l-1 1-3 1v-1zm-170 8 4 2 10 7q13 9 14 13v1c-2 1-9 0-13-2l-8-2-5-6-3-6v-1zm7 23 1 1 1 1h1v1h-1l-1-2z" style="fill:#cfcfcf" transform="scale(.02)"/></svg>